<?xml version="1.0" standalone="no"?>
<!DOCTYPE svg PUBLIC "-//W3C//DTD SVG 20010904//EN"
 "http://www.w3.org/TR/2001/REC-SVG-20010904/DTD/svg10.dtd">
<svg version="1.0" xmlns="http://www.w3.org/2000/svg"
 width="680.000000pt" height="425.000000pt" viewBox="0 0 680.000000 425.000000"
 preserveAspectRatio="xMidYMid meet">
<metadata>
Created by potrace 1.13, written by Peter Selinger 2001-2015
</metadata>
<g transform="translate(0.000000,425.000000) scale(0.100000,-0.100000)"
fill="#000000" stroke="none">
<path d="M3382 2475 c-2 -67 -5 -86 -13 -75 -9 12 -10 11 -6 -7 3 -13 3 -23 1
-23 -3 0 -9 10 -14 23 -7 17 -9 18 -9 5 -1 -29 -20 -20 -38 17 -14 30 -18 32
-28 18 -11 -14 -13 -13 -19 12 -4 15 -9 25 -12 23 -2 -3 1 -19 7 -37 10 -29
12 -30 25 -14 17 22 18 12 2 -22 l-11 -25 -31 27 -31 28 26 -30 c46 -54 56
-73 26 -46 -15 14 -27 20 -27 15 -1 -5 -12 5 -26 21 -15 17 -23 23 -19 15 14
-27 37 -50 46 -44 4 2 13 -6 20 -18 11 -20 10 -21 -3 -11 -20 17 -31 4 -16
-16 8 -10 4 -9 -10 3 -24 21 -29 31 -9 20 15 -8 -189 186 -215 204 -13 10 -18
10 -18 1 0 -6 30 -41 68 -78 52 -52 55 -54 12 -9 -30 32 -51 58 -46 58 10 0
161 -142 161 -152 0 -3 3 -10 8 -14 18 -18 5 -25 -15 -8 l-23 19 19 -22 c10
-13 22 -20 26 -18 4 3 14 -2 21 -11 10 -12 10 -15 -2 -12 -8 2 -13 -2 -12 -9
2 -8 -4 -10 -15 -6 -14 6 -15 4 -4 -9 11 -14 9 -16 -20 -13 -18 1 -41 -2 -50
-7 -12 -6 -28 -3 -47 7 -43 22 -53 18 -11 -5 19 -10 43 -16 54 -13 12 3 16 1
12 -6 -5 -8 0 -8 20 -1 15 6 29 8 32 5 3 -3 -1 -5 -9 -5 -12 0 -11 -2 1 -11
12 -8 10 -9 -9 -4 -16 5 -21 4 -17 -4 5 -7 -3 -12 -21 -12 -22 -2 -19 -3 12
-8 l40 -7 -55 -12 -55 -11 55 5 c39 3 51 2 40 -6 -8 -5 -26 -10 -40 -11 -20
-1 -18 -3 10 -9 l35 -7 -45 -3 -45 -3 45 -7 c43 -7 44 -7 10 -9 -37 -3 -35 -5
15 -16 30 -7 30 -7 6 -16 -13 -5 -33 -7 -45 -4 -12 3 2 -6 29 -19 28 -13 43
-25 35 -25 -13 -1 -13 -2 0 -11 19 -13 8 -13 -25 0 -19 7 -24 7 -19 -1 4 -7 0
-9 -12 -6 -11 3 -39 -5 -64 -18 -55 -29 -45 -33 11 -5 27 14 45 18 57 12 9 -5
32 -9 50 -7 l32 2 -21 -24 c-13 -12 -19 -23 -15 -23 5 0 2 -8 -5 -17 -11 -13
-8 -13 12 2 15 11 22 23 17 26 -5 3 -3 9 6 12 9 4 15 1 13 -6 -1 -7 5 -11 13
-9 12 3 13 1 2 -10 -7 -7 -17 -13 -22 -13 -5 0 -54 -48 -109 -107 -99 -105
-129 -150 -73 -109 34 26 221 205 205 196 -17 -8 -16 0 1 14 12 10 14 8 12
-13 -2 -16 1 -23 7 -19 6 4 8 0 4 -9 -6 -16 8 -19 29 -5 13 7 24 -1 24 -17 0
-6 -5 -4 -11 4 -9 13 -10 12 -5 -2 19 -55 18 -54 2 -34 -9 11 -16 15 -16 9 0
-7 5 -15 10 -18 6 -4 8 -16 5 -28 -3 -12 6 -1 20 25 32 61 45 68 46 26 l1 -33
8 30 8 30 2 -30 c2 -30 2 -30 10 -5 6 17 9 -2 11 -65 3 -81 3 -83 6 -25 5 112
17 125 23 25 l6 -90 2 88 c1 64 5 86 14 81 7 -5 9 -2 5 9 -4 11 -1 15 14 12
10 -2 24 -7 30 -11 8 -4 9 1 4 17 -5 19 -4 21 4 9 10 -13 11 -13 11 0 0 13 1
13 10 0 5 -8 10 -19 10 -25 0 -5 -4 -4 -9 3 -7 11 -9 10 -15 -3 -3 -9 3 -33
14 -53 12 -20 18 -27 15 -15 -3 12 -2 24 4 27 5 3 12 -6 15 -20 4 -15 9 -24
12 -22 2 3 -1 19 -7 37 -10 29 -12 30 -25 14 -17 -23 -17 -5 0 26 l13 23 31
-38 c18 -21 32 -35 32 -32 0 12 -62 78 -69 74 -4 -3 -7 4 -7 14 0 18 2 18 23
-2 13 -12 23 -17 23 -12 1 5 12 -4 26 -21 15 -16 23 -23 19 -15 -14 27 -37 50
-46 44 -4 -2 -13 6 -20 18 -11 21 -11 22 4 9 16 -13 22 -8 18 13 -1 5 5 4 13
-4 19 -15 21 -24 4 -14 -7 4 -2 -5 11 -19 26 -29 37 -35 24 -14 -4 6 -9 21
-10 31 -2 11 29 -16 76 -65 43 -46 77 -86 75 -88 -3 -3 -30 20 -62 50 -32 30
-20 16 26 -30 75 -75 109 -98 85 -58 -12 20 -217 235 -207 217 7 -13 5 -13 -9
-1 -20 16 -22 22 -4 19 6 -2 11 2 10 9 -2 7 4 10 12 7 8 -4 12 -10 9 -15 -3
-5 6 -4 21 3 17 7 22 14 14 19 -7 4 -18 5 -25 2 -6 -2 -15 1 -20 8 -4 7 -3 10
2 6 5 -3 24 3 43 12 28 15 31 19 16 25 -10 3 -20 4 -23 1 -3 -3 1 -5 9 -5 11
0 11 -2 -1 -10 -8 -5 -19 -10 -25 -10 -5 0 -3 5 5 10 12 8 12 10 1 10 -25 0
-2 13 36 20 l38 8 -40 2 c-32 1 -36 3 -20 10 l20 9 -20 0 c-17 1 -17 3 -5 11
8 5 26 10 40 11 20 1 18 3 -10 9 l-35 7 45 3 45 3 -50 7 c-44 6 -46 7 -15 9
l35 3 -32 9 c-40 12 -44 24 -5 15 21 -5 24 -4 12 5 -12 8 -9 9 15 5 25 -4 23
-2 -12 14 -41 18 -61 36 -26 23 11 -4 14 -3 9 5 -4 7 -15 12 -24 13 -10 0 -12
3 -5 5 7 3 22 0 34 -6 17 -9 20 -9 14 0 -5 8 -2 10 11 7 11 -3 39 5 64 18 55
29 45 33 -11 5 -30 -16 -44 -18 -58 -10 -11 5 -28 7 -38 3 -16 -6 -16 -4 2 17
11 12 34 31 50 41 17 11 24 19 17 19 -7 0 -32 -18 -56 -40 -46 -43 -74 -55
-38 -17 11 12 20 27 20 32 -1 6 17 20 38 32 40 23 41 32 1 12 -33 -18 -80 -59
-67 -59 6 0 8 -4 5 -10 -9 -14 -25 -12 -22 3 1 6 -4 11 -12 9 -12 -3 -12 0 -2
12 7 9 17 14 21 13 11 -3 210 209 210 224 0 6 -8 4 -20 -4 -30 -21 -161 -149
-157 -153 2 -2 32 26 67 61 36 36 69 65 74 65 5 0 -24 -35 -65 -77 -41 -43
-78 -76 -82 -75 -5 1 -6 -2 -3 -7 3 -5 0 -14 -8 -20 -21 -18 -27 9 -7 34 11
14 7 12 -12 -4 -27 -24 -36 -38 -17 -26 15 9 12 -1 -4 -14 -12 -10 -14 -8 -12
13 2 14 -1 23 -6 19 -6 -3 -8 3 -4 15 4 11 2 23 -3 27 -7 4 -8 -1 -4 -11 4
-11 3 -15 -5 -10 -6 3 -13 2 -17 -4 -8 -13 -25 -3 -25 13 0 7 4 6 11 -3 9 -13
10 -12 5 3 -19 54 -18 53 -2 33 9 -11 16 -15 16 -9 0 7 -5 15 -10 18 -6 4 -8
16 -5 28 3 12 -5 1 -19 -24 -13 -25 -31 -50 -38 -57 -11 -9 -13 -4 -11 26 2
36 2 36 -6 7 l-9 -30 -2 30 c-2 30 -2 30 -10 5 -6 -17 -9 2 -11 65 -3 89 -3
89 -6 20 -5 -104 -17 -112 -23 -15 l-6 85 -2 -90z m106 -141 c42 -17 97 -67
117 -105 42 -80 23 -198 -43 -261 -54 -52 -92 -68 -162 -68 -102 0 -185 58
-216 153 -37 110 10 221 116 278 44 23 137 25 188 3z"/>
</g>
</svg>
