<?xml version="1.0" standalone="no"?>
<!DOCTYPE svg PUBLIC "-//W3C//DTD SVG 20010904//EN"
 "http://www.w3.org/TR/2001/REC-SVG-20010904/DTD/svg10.dtd">
<svg version="1.0" xmlns="http://www.w3.org/2000/svg"
 width="810.000000pt" height="540.000000pt" viewBox="0 0 810.000000 540.000000"
 preserveAspectRatio="xMidYMid meet">
<metadata>
Created by potrace 1.13, written by Peter Selinger 2001-2015
</metadata>
<g transform="translate(0.000000,540.000000) scale(0.100000,-0.100000)"
fill="#000000" stroke="none">
<path d="M0 2700 l0 -2700 4050 0 4050 0 0 2700 0 2700 -4050 0 -4050 0 0
-2700z m4085 1992 l31 -97 104 -5 105 -5 -82 -59 c-93 -67 -89 -53 -46 -180
12 -38 23 -73 23 -78 0 -4 -36 19 -79 52 -44 33 -85 60 -91 60 -6 0 -47 -27
-91 -60 -43 -33 -79 -56 -79 -52 0 5 11 40 23 78 43 127 47 113 -46 180 l-82
59 105 5 104 5 31 97 c16 54 32 98 35 98 3 0 19 -44 35 -98z m-900 -240 l31
-97 108 -3 108 -3 -78 -56 c-44 -30 -83 -59 -88 -63 -4 -5 6 -50 23 -102 17
-51 31 -96 31 -100 0 -5 -36 19 -81 52 -44 33 -84 60 -89 60 -5 0 -45 -27 -89
-60 -45 -33 -81 -57 -81 -52 0 4 14 49 31 100 17 52 27 97 23 102 -5 4 -44 33
-88 63 l-78 56 108 3 108 3 31 97 c16 54 32 98 35 98 3 0 19 -44 35 -98z
m1800 0 l31 -97 108 -3 108 -3 -78 -56 c-44 -30 -83 -59 -88 -63 -4 -5 6 -50
23 -102 17 -51 31 -96 31 -100 0 -5 -36 19 -81 52 -44 33 -84 60 -89 60 -5 0
-45 -27 -89 -60 -45 -33 -81 -57 -81 -52 0 4 14 49 31 100 17 52 27 97 23 102
-5 4 -44 33 -88 63 l-78 56 108 3 108 3 31 97 c16 54 32 98 35 98 3 0 19 -44
35 -98z m-2321 -760 l108 -3 -78 -56 c-44 -30 -82 -58 -86 -62 -4 -4 7 -53 26
-109 18 -56 28 -98 22 -95 -6 4 -43 31 -83 60 -40 29 -76 53 -82 53 -5 0 -46
-27 -90 -60 -45 -33 -81 -56 -81 -52 0 5 14 48 30 97 17 49 30 92 30 96 0 4
-37 33 -81 66 l-82 58 103 5 103 5 29 85 c15 47 31 92 34 100 4 9 20 -25 38
-85 l32 -100 108 -3z m2982 95 l31 -92 103 -5 103 -5 -82 -58 c-44 -33 -81
-62 -81 -66 0 -4 14 -47 30 -96 17 -49 30 -92 30 -97 0 -4 -36 19 -81 52 -44
33 -85 60 -90 60 -6 0 -42 -24 -82 -53 -40 -29 -77 -56 -84 -60 -6 -4 4 39 23
95 19 56 31 105 27 109 -5 4 -43 32 -87 62 l-78 56 108 3 108 3 30 98 c16 53
32 94 35 91 3 -3 20 -47 37 -97z m-3361 -895 l31 -97 104 -5 105 -5 -82 -59
c-93 -67 -89 -53 -46 -180 12 -38 23 -73 23 -78 0 -4 -36 19 -79 52 -44 33
-85 60 -91 60 -6 0 -47 -27 -91 -60 -43 -33 -79 -56 -79 -52 0 5 11 40 23 78
43 127 47 113 -46 180 l-82 59 105 5 104 5 31 97 c16 54 32 98 35 98 3 0 19
-44 35 -98z m3600 0 l31 -97 104 -5 105 -5 -82 -59 c-93 -67 -89 -53 -46 -180
12 -38 23 -73 23 -78 0 -4 -36 19 -79 52 -44 33 -85 60 -91 60 -6 0 -47 -27
-91 -60 -43 -33 -79 -56 -79 -52 0 5 11 40 23 78 43 127 47 113 -46 180 l-82
59 105 5 104 5 31 97 c16 54 32 98 35 98 3 0 19 -44 35 -98z m-3221 -1000
l108 -3 -78 -56 c-44 -30 -82 -58 -86 -62 -4 -4 7 -53 26 -109 18 -56 28 -98
22 -95 -6 4 -43 31 -83 60 -40 29 -76 53 -82 53 -5 0 -46 -27 -90 -60 -45 -33
-81 -56 -81 -52 0 5 14 48 30 97 17 49 30 92 30 96 0 4 -37 33 -81 66 l-82 58
103 5 103 5 29 85 c15 47 31 92 34 100 4 9 20 -25 38 -85 l32 -100 108 -3z
m2982 95 l31 -92 103 -5 103 -5 -82 -58 c-44 -33 -81 -62 -81 -66 0 -4 14 -47
30 -96 17 -49 30 -92 30 -97 0 -4 -36 19 -81 52 -44 33 -85 60 -90 60 -6 0
-42 -24 -82 -53 -40 -29 -77 -56 -84 -60 -6 -4 4 39 23 95 19 56 31 105 27
109 -5 4 -43 32 -87 62 l-78 56 108 3 108 3 30 98 c16 53 32 94 35 91 3 -3 20
-47 37 -97z m-2461 -655 l31 -97 103 -5 104 -5 -82 -58 c-44 -33 -81 -60 -81
-61 0 -1 13 -44 30 -96 16 -52 27 -96 25 -98 -2 -2 -37 22 -79 52 -41 31 -80
56 -86 56 -6 0 -45 -25 -86 -56 -42 -30 -78 -54 -80 -52 -2 2 10 46 26 98 16
52 30 96 30 97 0 0 -37 27 -81 60 l-82 58 104 5 103 5 31 97 c16 54 32 98 35
98 3 0 19 -44 35 -98z m1800 0 l31 -97 103 -5 104 -5 -82 -58 c-44 -33 -81
-60 -81 -61 0 -1 13 -44 30 -96 16 -52 27 -96 25 -98 -2 -2 -37 22 -79 52 -41
31 -80 56 -86 56 -6 0 -45 -25 -86 -56 -42 -30 -78 -54 -80 -52 -2 2 10 46 26
98 16 52 30 96 30 97 0 0 -37 27 -81 60 l-82 58 104 5 103 5 31 97 c16 54 32
98 35 98 3 0 19 -44 35 -98z m-900 -240 l31 -97 104 -5 105 -5 -82 -59 c-93
-67 -89 -53 -46 -180 12 -38 23 -73 23 -78 0 -4 -36 19 -79 52 -44 33 -85 60
-91 60 -6 0 -47 -27 -91 -60 -43 -33 -79 -56 -79 -52 0 5 11 40 23 78 43 127
47 113 -46 180 l-82 59 105 5 104 5 31 97 c16 54 32 98 35 98 3 0 19 -44 35
-98z"/>
</g>
</svg>
