<?xml version="1.0" standalone="no"?>
<!DOCTYPE svg PUBLIC "-//W3C//DTD SVG 20010904//EN"
 "http://www.w3.org/TR/2001/REC-SVG-20010904/DTD/svg10.dtd">
<svg version="1.0" xmlns="http://www.w3.org/2000/svg"
 width="680.000000pt" height="358.000000pt" viewBox="0 0 680.000000 358.000000"
 preserveAspectRatio="xMidYMid meet">
<metadata>
Created by potrace 1.13, written by Peter Selinger 2001-2015
</metadata>
<g transform="translate(0.000000,358.000000) scale(0.100000,-0.100000)"
fill="#000000" stroke="none">
<path d="M0 2615 l0 -965 3400 0 3400 0 0 140 0 140 -2040 0 -2040 0 0 135 0
135 2040 0 2040 0 0 140 0 140 -2040 0 -2040 0 0 140 0 140 2040 0 2040 0 0
135 0 135 -2040 0 -2040 0 0 140 0 140 2040 0 2040 0 0 135 0 135 -3400 0
-3400 0 0 -965z m743 817 c44 -4 46 -13 11 -37 -26 -17 -27 -29 -7 -82 7 -17
6 -17 -17 0 -41 29 -48 30 -81 6 l-32 -23 6 26 c4 15 9 33 12 41 4 8 -4 21
-19 31 -36 23 -32 36 8 36 31 0 36 4 47 38 l12 37 12 -35 c10 -30 16 -35 48
-38z m453 -2 c41 0 43 -12 8 -35 -26 -17 -27 -29 -7 -82 7 -17 6 -17 -17 0
-42 29 -48 30 -81 6 -28 -20 -32 -20 -26 -5 20 52 19 64 -7 81 -35 23 -33 35
8 35 31 0 36 4 47 37 l12 37 14 -37 c13 -32 19 -37 49 -37z m450 0 c41 0 43
-12 8 -35 -26 -17 -27 -29 -7 -81 6 -15 2 -15 -26 5 -33 24 -39 23 -81 -6 -23
-17 -24 -17 -17 0 20 53 19 65 -7 82 -35 23 -33 35 8 35 31 0 36 4 48 36 l13
37 14 -37 c12 -32 18 -36 47 -36z m450 0 c40 0 43 -13 8 -36 -15 -10 -23 -23
-19 -31 3 -8 8 -26 12 -41 l6 -26 -32 23 c-33 24 -40 23 -81 -6 -23 -17 -24
-17 -17 0 20 53 19 65 -7 82 -36 24 -33 33 11 37 33 3 39 7 47 38 l10 35 14
-38 c13 -33 19 -37 48 -37z m-1801 0 c19 0 35 -2 35 -5 0 -3 -12 -17 -27 -30
-26 -21 -27 -26 -16 -54 9 -25 9 -31 -2 -31 -7 0 -18 7 -25 15 -17 20 -26 19
-62 -7 l-31 -22 6 26 c4 15 9 33 12 41 4 8 -4 21 -19 31 -36 23 -32 36 8 36
29 0 36 5 46 33 l12 32 14 -32 c12 -28 19 -33 49 -33z m2206 30 c9 -25 16 -30
45 -30 40 0 44 -13 8 -36 -15 -10 -23 -23 -19 -31 3 -8 8 -26 12 -41 l6 -26
-31 22 c-36 26 -45 27 -62 7 -7 -8 -18 -15 -25 -15 -11 0 -11 6 -2 31 11 28
10 33 -15 53 -37 29 -35 36 8 36 30 0 37 4 45 30 6 17 13 30 15 30 3 0 10 -13
15 -30z m-2208 -418 c43 -4 47 -13 12 -32 -27 -15 -30 -26 -15 -64 11 -31 1
-33 -33 -6 -25 20 -25 20 -51 -1 -33 -26 -40 -21 -26 17 10 26 8 31 -14 51
-34 29 -33 33 7 33 29 0 35 4 47 38 l13 37 12 -35 c10 -30 16 -35 48 -38z
m453 -2 c40 0 44 -11 9 -30 -27 -15 -30 -26 -15 -64 11 -31 1 -33 -33 -6 -25
20 -25 20 -51 -1 -33 -26 -40 -21 -26 17 10 26 8 31 -14 51 -34 29 -33 33 8
33 31 0 36 4 47 38 l13 37 14 -37 c13 -34 19 -38 48 -38z m450 0 c41 0 42 -4
7 -34 -24 -21 -25 -26 -15 -54 13 -37 10 -39 -27 -13 -26 19 -27 19 -51 0 -35
-26 -41 -24 -28 13 10 28 9 33 -15 54 -35 30 -34 34 7 34 31 0 36 4 47 38 l13
37 14 -37 c13 -34 19 -38 48 -38z m450 0 c41 0 42 -4 7 -34 -24 -21 -25 -26
-15 -54 13 -37 10 -39 -27 -13 -26 19 -27 19 -51 0 -35 -26 -41 -24 -28 13 10
28 9 33 -15 54 -35 30 -34 34 7 34 31 0 36 4 47 38 l13 37 14 -37 c13 -34 19
-38 48 -38z m450 0 c41 0 42 -4 8 -33 -22 -20 -24 -25 -14 -51 14 -38 7 -43
-26 -17 -26 21 -26 21 -51 1 -34 -27 -44 -25 -33 6 15 38 12 49 -15 64 -35 19
-31 30 9 30 31 0 36 4 47 38 l13 37 14 -37 c13 -34 19 -38 48 -38z m452 0 c39
0 40 -4 6 -33 -22 -20 -24 -25 -14 -51 14 -38 7 -43 -26 -17 -26 21 -26 21
-51 1 -34 -27 -44 -25 -33 6 15 38 12 49 -15 64 -35 19 -31 28 12 32 33 3 39
7 47 38 l10 35 16 -38 c13 -32 19 -37 48 -37z m-2073 -160 c6 -29 21 -36 63
-31 21 3 13 -18 -14 -35 -15 -10 -23 -23 -19 -31 3 -8 8 -26 12 -41 l6 -26
-32 23 c-30 21 -33 22 -56 7 -34 -22 -37 -21 -30 18 6 28 3 36 -19 54 -34 26
-33 34 7 30 28 -3 34 1 46 30 18 40 28 41 36 2z m450 0 c6 -26 11 -30 40 -30
45 0 50 -13 14 -34 -20 -12 -28 -23 -25 -33 4 -8 9 -26 12 -40 l7 -26 -31 23
c-29 22 -32 22 -56 6 -35 -22 -38 -21 -31 18 6 28 3 36 -19 53 -30 24 -25 33
20 33 28 0 33 4 39 30 4 17 10 30 15 30 5 0 11 -13 15 -30z m450 0 c5 -21 13
-30 28 -32 12 0 27 -2 32 -3 6 -2 14 -3 19 -4 6 0 -4 -11 -20 -23 -27 -20 -30
-26 -21 -51 12 -37 5 -43 -27 -22 -24 16 -28 16 -52 0 -32 -21 -39 -15 -27 22
9 25 6 31 -21 51 -16 12 -26 23 -20 23 5 1 14 2 19 4 6 1 20 3 32 3 15 2 23
11 28 32 4 17 10 30 15 30 5 0 11 -13 15 -30z m450 0 c6 -26 11 -30 39 -30 45
0 50 -9 20 -33 -22 -17 -25 -25 -19 -53 7 -39 4 -40 -31 -18 -24 16 -27 16
-56 -6 l-31 -23 7 26 c3 14 8 32 12 40 3 10 -5 21 -25 33 -36 21 -31 34 14 34
29 0 34 4 40 30 4 17 10 30 15 30 5 0 11 -13 15 -30z m503 -32 c39 4 40 -4 6
-30 -22 -18 -25 -26 -19 -54 7 -39 4 -40 -30 -18 -23 15 -26 14 -56 -7 l-32
-23 6 26 c4 15 9 33 12 41 4 8 -4 21 -19 31 -27 17 -35 38 -13 35 38 -5 53 3
65 34 l13 32 17 -35 c15 -31 21 -35 50 -32z m-1853 -358 c6 -27 10 -30 48 -30
l42 -1 -33 -27 c-30 -25 -32 -30 -22 -56 14 -38 7 -43 -26 -17 -23 18 -29 19
-43 8 -37 -32 -43 -31 -35 7 5 32 3 39 -22 59 l-29 22 40 5 c34 4 41 9 49 37
10 38 22 35 31 -7z m1851 -30 l39 -5 -29 -22 c-25 -20 -27 -27 -22 -59 8 -38
2 -39 -35 -7 -14 11 -20 10 -43 -8 -33 -26 -40 -21 -26 17 10 26 8 31 -22 56
l-33 27 43 1 c23 0 42 4 42 9 0 5 5 22 11 38 l11 28 13 -35 c10 -30 17 -36 51
-40z m-2028 -192 c39 4 41 -5 5 -34 -26 -20 -27 -25 -16 -53 9 -25 9 -31 -2
-31 -7 0 -18 7 -25 15 -16 20 -26 19 -61 -6 -31 -22 -35 -16 -19 27 10 24 8
30 -16 49 -18 15 -24 24 -16 29 7 4 16 5 21 2 17 -11 40 6 51 37 l11 32 17
-35 c15 -31 21 -35 50 -32z m425 1 c6 -1 22 0 35 1 30 2 28 -14 -4 -35 -26
-17 -27 -29 -7 -81 6 -16 3 -15 -24 4 -38 27 -38 27 -75 1 l-30 -22 6 22 c3
11 8 29 11 40 4 12 -3 24 -20 35 -35 23 -31 36 9 36 29 0 36 5 46 33 l12 32
14 -32 c8 -18 20 -33 27 -34z m450 -1 c6 -3 21 -4 34 -2 31 6 29 -10 -3 -31
-26 -17 -27 -29 -7 -81 6 -16 3 -15 -24 4 -17 12 -34 22 -38 22 -4 0 -21 -10
-38 -22 -27 -19 -30 -20 -24 -4 20 52 19 64 -8 82 -29 19 -19 34 22 34 15 0
24 10 33 33 l11 32 16 -30 c9 -16 20 -33 26 -37z m428 32 c8 -21 18 -30 32
-30 41 0 51 -15 22 -34 -27 -18 -28 -30 -8 -82 6 -16 3 -15 -24 4 -17 12 -34
22 -38 22 -4 0 -21 -10 -38 -22 -27 -19 -30 -20 -24 -4 20 52 19 64 -7 81 -33
22 -33 37 -1 31 27 -5 50 12 60 44 9 27 14 25 26 -10z m450 0 c9 -25 16 -30
45 -30 40 0 44 -13 9 -36 -17 -11 -24 -23 -20 -35 3 -11 8 -29 11 -40 l6 -22
-30 22 c-37 26 -37 26 -75 -1 -27 -19 -30 -20 -24 -4 20 52 19 64 -7 81 -32
21 -34 37 -3 35 41 -4 48 0 58 30 6 17 13 30 15 30 3 0 10 -13 15 -30z m449 5
c0 -22 30 -46 50 -40 30 9 33 -13 5 -31 -16 -10 -24 -23 -20 -31 3 -8 8 -26
12 -41 l6 -26 -31 22 c-36 26 -45 27 -62 7 -7 -8 -18 -15 -25 -15 -11 0 -11 6
-2 31 11 28 10 33 -15 53 -37 29 -35 38 5 34 28 -3 34 1 46 29 14 31 31 36 31
8z m-2204 -425 l39 -5 -29 -23 c-27 -21 -28 -25 -19 -57 13 -40 6 -43 -28 -16
-23 19 -24 19 -52 -1 -34 -25 -41 -20 -27 18 11 27 9 31 -21 57 l-33 27 42 0
c23 0 42 4 42 9 0 5 5 22 11 38 l11 28 13 -35 c10 -30 17 -36 51 -40z m450 0
c40 0 44 -11 9 -30 -27 -15 -30 -26 -15 -64 11 -31 4 -32 -30 -7 -24 19 -25
19 -53 -1 -34 -25 -41 -20 -27 18 11 27 9 31 -21 57 l-33 27 41 0 c39 0 42 2
54 38 l13 37 14 -37 c13 -34 19 -38 48 -38z m450 0 c41 0 42 -4 7 -34 -24 -21
-25 -26 -15 -54 13 -37 7 -39 -28 -13 -24 19 -25 19 -53 -1 -34 -25 -41 -20
-27 18 10 26 8 31 -14 51 -34 29 -33 33 8 33 31 0 36 4 47 38 l13 37 14 -37
c13 -34 19 -38 48 -38z m450 0 c41 0 42 -4 9 -33 -22 -19 -24 -26 -16 -54 11
-38 8 -40 -28 -14 -26 19 -27 19 -51 0 -35 -26 -41 -24 -28 13 10 28 9 33 -15
54 -35 30 -34 34 7 34 31 0 36 4 47 38 l13 37 14 -37 c13 -34 19 -38 48 -38z
m457 0 l41 0 -33 -27 c-30 -26 -32 -30 -21 -57 14 -38 7 -43 -27 -18 -28 20
-29 20 -53 1 -34 -25 -41 -24 -30 7 15 38 12 49 -15 64 -35 19 -31 30 9 30 31
0 36 4 47 38 l13 37 14 -37 c14 -35 18 -38 55 -38z m402 30 c6 -27 10 -30 48
-30 l41 0 -33 -27 c-30 -26 -32 -30 -21 -57 13 -36 6 -45 -18 -23 -23 21 -41
21 -66 2 -30 -23 -35 -18 -23 20 9 32 8 36 -19 57 l-29 23 40 5 c34 4 41 9 49
37 10 38 22 35 31 -7z"/>
<path d="M0 1240 l0 -140 3400 0 3400 0 0 140 0 140 -3400 0 -3400 0 0 -140z"/>
<path d="M0 685 l0 -135 3400 0 3400 0 0 135 0 135 -3400 0 -3400 0 0 -135z"/>
<path d="M0 135 l0 -135 3400 0 3400 0 0 135 0 135 -3400 0 -3400 0 0 -135z"/>
</g>
</svg>
